<?xml version="1.0" encoding="iso-8859-1"?>
<!-- Generator: Adobe Illustrator 16.0.0, SVG Export Plug-In . SVG Version: 6.00 Build 0)  -->
<!DOCTYPE svg PUBLIC "-//W3C//DTD SVG 1.1//EN" "http://www.w3.org/Graphics/SVG/1.1/DTD/svg11.dtd">
<svg version="1.1" id="Layer_1" xmlns="http://www.w3.org/2000/svg" xmlns:xlink="http://www.w3.org/1999/xlink" x="0px" y="0px"
	 width="40.75px" height="33.307px" viewBox="0 0 40.75 33.307" style="enable-background:new 0 0 40.75 33.307;"
	 xml:space="preserve">
<g>
	<path d="M40.75,23.625V0H0v23.625h14.253v5.188H9.871v4.494h20v-4.494h-3.375v-5.188H40.75z M2,21.625V2h36.75v19.625H2z"/>
	<path d="M9.902,15.625V7.273H7.935C7.919,7.617,7.837,7.907,7.688,8.143C7.54,8.379,7.351,8.567,7.118,8.707
		c-0.231,0.14-0.491,0.24-0.779,0.3C6.051,9.067,5.755,9.093,5.45,9.085v1.729h1.956v4.812H9.902z"/>
	<path d="M22.743,7.324c0-0.809-0.113-1.484-0.342-2.028c-0.228-0.544-0.518-0.981-0.87-1.313c-0.352-0.332-0.735-0.57-1.151-0.715
		c-0.416-0.144-0.816-0.216-1.2-0.216c-0.376,0-0.772,0.072-1.188,0.216c-0.416,0.145-0.798,0.383-1.146,0.715
		s-0.636,0.77-0.864,1.313c-0.228,0.544-0.342,1.22-0.342,2.028c0,0.808,0.114,1.483,0.342,2.027
		c0.229,0.545,0.517,0.982,0.864,1.314s0.731,0.57,1.152,0.714c0.42,0.145,0.817,0.216,1.193,0.216s0.774-0.071,1.194-0.216
		c0.42-0.144,0.804-0.382,1.151-0.714c0.349-0.332,0.637-0.77,0.864-1.314C22.63,8.808,22.743,8.132,22.743,7.324z M20.434,8.08
		c-0.021,0.28-0.072,0.544-0.156,0.792s-0.212,0.458-0.384,0.63S19.483,9.76,19.18,9.76c-0.305,0-0.54-0.086-0.708-0.258
		s-0.294-0.382-0.378-0.63s-0.134-0.514-0.15-0.798C17.928,7.79,17.92,7.54,17.92,7.324c0-0.224,0.008-0.479,0.023-0.763
		c0.017-0.283,0.066-0.55,0.15-0.798c0.084-0.247,0.212-0.456,0.384-0.624s0.414-0.252,0.726-0.252c0.296,0,0.53,0.086,0.702,0.259
		c0.172,0.172,0.298,0.384,0.378,0.636s0.13,0.518,0.15,0.798c0.02,0.28,0.03,0.528,0.03,0.744C20.464,7.548,20.453,7.8,20.434,8.08
		z"/>
	<path d="M6.634,16.667c-0.122-0.115-0.255-0.198-0.399-0.248s-0.282-0.074-0.416-0.074c-0.13,0-0.268,0.024-0.411,0.074
		c-0.145,0.05-0.277,0.133-0.397,0.248c-0.121,0.115-0.221,0.267-0.3,0.455s-0.118,0.423-0.118,0.703s0.039,0.515,0.118,0.703
		s0.179,0.34,0.3,0.455c0.12,0.115,0.254,0.197,0.399,0.247c0.146,0.051,0.283,0.075,0.414,0.075c0.13,0,0.268-0.024,0.413-0.075
		c0.146-0.05,0.279-0.132,0.399-0.247c0.121-0.115,0.221-0.267,0.3-0.455s0.118-0.423,0.118-0.703s-0.039-0.515-0.118-0.703
		S6.756,16.782,6.634,16.667z M6.253,18.087c-0.007,0.098-0.024,0.188-0.054,0.274s-0.073,0.159-0.133,0.219
		s-0.143,0.089-0.248,0.089S5.632,18.64,5.573,18.58s-0.102-0.133-0.131-0.219s-0.047-0.178-0.052-0.276
		c-0.006-0.099-0.009-0.185-0.009-0.26c0-0.078,0.003-0.166,0.009-0.265c0.005-0.098,0.022-0.19,0.052-0.276
		s0.073-0.158,0.133-0.216c0.06-0.059,0.144-0.088,0.252-0.088c0.103,0,0.184,0.03,0.243,0.09s0.104,0.133,0.131,0.221
		c0.027,0.087,0.045,0.179,0.052,0.276c0.007,0.097,0.011,0.183,0.011,0.258C6.264,17.902,6.26,17.99,6.253,18.087z"/>
	<path d="M18.635,17.309c0.121-0.115,0.221-0.267,0.3-0.455s0.118-0.423,0.118-0.703s-0.039-0.515-0.118-0.703
		s-0.18-0.34-0.302-0.455s-0.255-0.198-0.399-0.248s-0.282-0.074-0.416-0.074c-0.13,0-0.268,0.024-0.411,0.074
		c-0.145,0.05-0.277,0.133-0.397,0.248c-0.121,0.115-0.221,0.267-0.3,0.455s-0.118,0.423-0.118,0.703s0.039,0.515,0.118,0.703
		s0.179,0.34,0.3,0.455c0.12,0.115,0.254,0.197,0.399,0.247c0.146,0.051,0.283,0.075,0.414,0.075c0.13,0,0.268-0.024,0.413-0.075
		C18.381,17.506,18.515,17.424,18.635,17.309z M18.065,16.905c-0.06,0.06-0.143,0.089-0.248,0.089s-0.187-0.029-0.245-0.089
		s-0.102-0.133-0.131-0.219s-0.047-0.178-0.052-0.276c-0.006-0.099-0.009-0.185-0.009-0.26c0-0.078,0.003-0.166,0.009-0.265
		c0.005-0.098,0.022-0.19,0.052-0.276s0.073-0.158,0.133-0.216c0.06-0.059,0.144-0.088,0.252-0.088c0.103,0,0.184,0.03,0.243,0.09
		s0.104,0.133,0.131,0.221c0.027,0.087,0.045,0.179,0.052,0.276c0.007,0.097,0.011,0.183,0.011,0.258
		c0,0.077-0.004,0.165-0.011,0.262c-0.007,0.098-0.024,0.188-0.054,0.274S18.125,16.846,18.065,16.905z"/>
	<path d="M11.383,17.801c-0.122-0.115-0.255-0.198-0.399-0.248s-0.282-0.074-0.416-0.074c-0.13,0-0.268,0.024-0.411,0.074
		c-0.145,0.05-0.277,0.133-0.397,0.248c-0.121,0.115-0.221,0.267-0.3,0.455s-0.118,0.423-0.118,0.703s0.039,0.515,0.118,0.703
		s0.179,0.34,0.3,0.455c0.12,0.115,0.254,0.197,0.399,0.247c0.146,0.051,0.283,0.075,0.414,0.075c0.13,0,0.268-0.024,0.413-0.075
		c0.146-0.05,0.279-0.132,0.399-0.247c0.121-0.115,0.221-0.267,0.3-0.455s0.118-0.423,0.118-0.703s-0.039-0.515-0.118-0.703
		S11.505,17.916,11.383,17.801z M11.002,19.221c-0.007,0.098-0.024,0.188-0.054,0.274s-0.073,0.159-0.133,0.219
		s-0.143,0.089-0.248,0.089s-0.187-0.029-0.245-0.089s-0.102-0.133-0.131-0.219s-0.047-0.178-0.052-0.276
		c-0.006-0.099-0.009-0.185-0.009-0.26c0-0.078,0.003-0.166,0.009-0.265c0.005-0.098,0.022-0.19,0.052-0.276
		s0.073-0.158,0.133-0.216c0.06-0.059,0.144-0.088,0.252-0.088c0.103,0,0.184,0.03,0.243,0.09s0.104,0.133,0.131,0.221
		c0.027,0.087,0.045,0.179,0.052,0.276c0.007,0.097,0.011,0.183,0.011,0.258C11.013,19.036,11.009,19.124,11.002,19.221z"/>
	<path d="M29.07,18.15c-0.122-0.115-0.255-0.198-0.399-0.248s-0.282-0.074-0.416-0.074c-0.13,0-0.268,0.024-0.411,0.074
		c-0.145,0.05-0.277,0.133-0.397,0.248c-0.121,0.115-0.221,0.267-0.3,0.455s-0.118,0.423-0.118,0.703s0.039,0.515,0.118,0.703
		s0.179,0.34,0.3,0.455c0.12,0.115,0.254,0.197,0.399,0.247c0.146,0.051,0.283,0.075,0.414,0.075c0.13,0,0.268-0.024,0.413-0.075
		c0.146-0.05,0.279-0.132,0.399-0.247c0.121-0.115,0.221-0.267,0.3-0.455s0.118-0.423,0.118-0.703s-0.039-0.515-0.118-0.703
		S29.192,18.266,29.07,18.15z M28.689,19.57c-0.007,0.098-0.024,0.188-0.054,0.274s-0.073,0.159-0.133,0.219
		s-0.143,0.089-0.248,0.089s-0.187-0.029-0.245-0.089s-0.102-0.133-0.131-0.219s-0.047-0.178-0.052-0.276
		c-0.006-0.099-0.009-0.185-0.009-0.26c0-0.078,0.003-0.166,0.009-0.265c0.005-0.098,0.022-0.19,0.052-0.276
		s0.073-0.158,0.133-0.216c0.06-0.059,0.144-0.088,0.252-0.088c0.103,0,0.184,0.03,0.243,0.09s0.104,0.133,0.131,0.221
		c0.027,0.087,0.045,0.179,0.052,0.276c0.007,0.097,0.011,0.183,0.011,0.258C28.7,19.386,28.696,19.474,28.689,19.57z"/>
	<path d="M5.812,7.277c0.079,0.075,0.166,0.13,0.262,0.162C6.169,7.473,6.26,7.488,6.345,7.488c0.086,0,0.176-0.016,0.271-0.049
		c0.096-0.032,0.183-0.087,0.262-0.162s0.145-0.175,0.197-0.299c0.052-0.124,0.077-0.277,0.077-0.461S7.127,6.18,7.075,6.057
		C7.022,5.933,6.957,5.833,6.877,5.758c-0.08-0.076-0.167-0.13-0.262-0.163C6.521,5.563,6.43,5.546,6.342,5.546
		c-0.085,0-0.175,0.017-0.27,0.049C5.978,5.628,5.891,5.682,5.812,5.758C5.732,5.833,5.667,5.933,5.615,6.057
		C5.563,6.18,5.537,6.334,5.537,6.518s0.026,0.337,0.078,0.461S5.732,7.202,5.812,7.277z M6.062,6.344
		c0.003-0.064,0.015-0.125,0.034-0.181c0.019-0.057,0.048-0.104,0.087-0.143s0.094-0.057,0.165-0.057c0.067,0,0.12,0.02,0.159,0.059
		s0.068,0.087,0.086,0.145c0.019,0.057,0.03,0.117,0.034,0.182c0.005,0.063,0.007,0.119,0.007,0.169
		c0,0.051-0.002,0.108-0.007,0.172c-0.004,0.063-0.016,0.123-0.035,0.18S6.544,6.974,6.505,7.013S6.411,7.071,6.342,7.071
		c-0.068,0-0.122-0.02-0.16-0.059C6.143,6.974,6.114,6.926,6.096,6.869c-0.02-0.057-0.031-0.117-0.034-0.182
		c-0.004-0.064-0.006-0.121-0.006-0.17C6.056,6.467,6.058,6.408,6.062,6.344z"/>
	<path d="M26.502,13.32c-0.08-0.076-0.167-0.13-0.262-0.163c-0.095-0.032-0.186-0.049-0.273-0.049c-0.085,0-0.175,0.017-0.27,0.049
		c-0.095,0.033-0.182,0.087-0.261,0.163c-0.079,0.075-0.145,0.175-0.196,0.299c-0.052,0.123-0.078,0.277-0.078,0.461
		s0.026,0.337,0.078,0.461s0.117,0.224,0.196,0.299s0.166,0.13,0.262,0.162c0.096,0.033,0.187,0.049,0.271,0.049
		c0.086,0,0.176-0.016,0.271-0.049c0.096-0.032,0.183-0.087,0.262-0.162s0.145-0.175,0.197-0.299
		c0.052-0.124,0.077-0.277,0.077-0.461s-0.025-0.338-0.077-0.461C26.647,13.495,26.582,13.396,26.502,13.32z M26.252,14.252
		c-0.004,0.063-0.016,0.123-0.035,0.18s-0.048,0.104-0.087,0.144s-0.094,0.059-0.163,0.059c-0.068,0-0.122-0.02-0.16-0.059
		c-0.039-0.039-0.067-0.087-0.086-0.144c-0.02-0.057-0.031-0.117-0.034-0.182c-0.004-0.064-0.006-0.121-0.006-0.17
		c0-0.051,0.002-0.109,0.006-0.174c0.003-0.064,0.015-0.125,0.034-0.181c0.019-0.057,0.048-0.104,0.087-0.143
		s0.094-0.057,0.165-0.057c0.067,0,0.12,0.02,0.159,0.059s0.068,0.087,0.086,0.145c0.019,0.057,0.03,0.117,0.034,0.182
		c0.005,0.063,0.007,0.119,0.007,0.169C26.259,14.131,26.257,14.188,26.252,14.252z"/>
	<path d="M35.991,15.598c0.096-0.032,0.183-0.087,0.262-0.162s0.145-0.175,0.197-0.299c0.052-0.124,0.077-0.277,0.077-0.461
		s-0.025-0.338-0.077-0.461c-0.053-0.124-0.118-0.224-0.198-0.299c-0.08-0.076-0.167-0.13-0.262-0.163
		c-0.095-0.032-0.186-0.049-0.273-0.049c-0.085,0-0.175,0.017-0.27,0.049c-0.095,0.033-0.182,0.087-0.261,0.163
		c-0.079,0.075-0.145,0.175-0.196,0.299c-0.052,0.123-0.078,0.277-0.078,0.461s0.026,0.337,0.078,0.461s0.117,0.224,0.196,0.299
		s0.166,0.13,0.262,0.162c0.096,0.033,0.187,0.049,0.271,0.049C35.806,15.646,35.896,15.631,35.991,15.598z M35.557,15.171
		c-0.039-0.039-0.067-0.087-0.086-0.144c-0.02-0.057-0.031-0.117-0.034-0.182c-0.004-0.064-0.006-0.121-0.006-0.17
		c0-0.051,0.002-0.109,0.006-0.174c0.003-0.064,0.015-0.125,0.034-0.181c0.019-0.057,0.048-0.104,0.087-0.143
		s0.094-0.057,0.165-0.057c0.067,0,0.12,0.02,0.159,0.059s0.068,0.087,0.086,0.145c0.019,0.057,0.03,0.117,0.034,0.182
		c0.005,0.063,0.007,0.119,0.007,0.169c0,0.051-0.002,0.108-0.007,0.172c-0.004,0.063-0.016,0.123-0.035,0.18
		s-0.048,0.104-0.087,0.144s-0.094,0.059-0.163,0.059C35.648,15.229,35.595,15.21,35.557,15.171z"/>
	<path d="M31.314,16.166c-0.08-0.076-0.167-0.13-0.262-0.163c-0.095-0.032-0.186-0.049-0.273-0.049c-0.085,0-0.175,0.017-0.27,0.049
		c-0.095,0.033-0.182,0.087-0.261,0.163c-0.079,0.075-0.145,0.175-0.196,0.299c-0.052,0.123-0.078,0.277-0.078,0.461
		s0.026,0.337,0.078,0.461s0.117,0.224,0.196,0.299s0.166,0.13,0.262,0.162c0.096,0.033,0.187,0.049,0.271,0.049
		c0.086,0,0.176-0.016,0.271-0.049c0.096-0.032,0.183-0.087,0.262-0.162s0.145-0.175,0.197-0.299
		c0.052-0.124,0.077-0.277,0.077-0.461s-0.025-0.338-0.077-0.461C31.46,16.341,31.395,16.241,31.314,16.166z M31.064,17.098
		c-0.004,0.063-0.016,0.123-0.035,0.18s-0.048,0.104-0.087,0.144s-0.094,0.059-0.163,0.059c-0.068,0-0.122-0.02-0.16-0.059
		c-0.039-0.039-0.067-0.087-0.086-0.144c-0.02-0.057-0.031-0.117-0.034-0.182c-0.004-0.064-0.006-0.121-0.006-0.17
		c0-0.051,0.002-0.109,0.006-0.174c0.003-0.064,0.015-0.125,0.034-0.181c0.019-0.057,0.048-0.104,0.087-0.143
		s0.094-0.057,0.165-0.057c0.067,0,0.12,0.02,0.159,0.059s0.068,0.087,0.086,0.145c0.019,0.057,0.03,0.117,0.034,0.182
		c0.005,0.063,0.007,0.119,0.007,0.169C31.071,16.977,31.069,17.034,31.064,17.098z"/>
	<path d="M37.696,8.895c-0.122-0.115-0.255-0.198-0.399-0.248s-0.282-0.074-0.416-0.074c-0.13,0-0.268,0.024-0.411,0.074
		c-0.145,0.05-0.277,0.133-0.397,0.248c-0.121,0.115-0.221,0.267-0.3,0.455s-0.118,0.423-0.118,0.703s0.039,0.515,0.118,0.703
		s0.179,0.34,0.3,0.455c0.12,0.115,0.254,0.197,0.399,0.247c0.146,0.051,0.283,0.075,0.414,0.075c0.13,0,0.268-0.024,0.413-0.075
		c0.146-0.05,0.279-0.132,0.399-0.247c0.121-0.115,0.221-0.267,0.3-0.455s0.118-0.423,0.118-0.703s-0.039-0.515-0.118-0.703
		S37.818,9.01,37.696,8.895z M37.315,10.314c-0.007,0.098-0.024,0.188-0.054,0.274s-0.073,0.159-0.133,0.219
		s-0.143,0.089-0.248,0.089s-0.187-0.029-0.245-0.089s-0.102-0.133-0.131-0.219s-0.047-0.178-0.052-0.276
		c-0.006-0.099-0.009-0.185-0.009-0.26c0-0.078,0.003-0.166,0.009-0.265c0.005-0.098,0.022-0.19,0.052-0.276
		s0.073-0.158,0.133-0.216c0.06-0.059,0.144-0.088,0.252-0.088c0.103,0,0.184,0.03,0.243,0.09s0.104,0.133,0.131,0.221
		c0.027,0.087,0.045,0.179,0.052,0.276c0.007,0.097,0.011,0.183,0.011,0.258C37.326,10.13,37.322,10.218,37.315,10.314z"/>
	<path d="M23.635,12.211c0.12,0.115,0.254,0.197,0.399,0.247c0.146,0.051,0.283,0.075,0.414,0.075c0.13,0,0.268-0.024,0.413-0.075
		c0.146-0.05,0.279-0.132,0.399-0.247c0.121-0.115,0.221-0.267,0.3-0.455s0.118-0.423,0.118-0.703s-0.039-0.515-0.118-0.703
		s-0.18-0.34-0.302-0.455s-0.255-0.198-0.399-0.248s-0.282-0.074-0.416-0.074c-0.13,0-0.268,0.024-0.411,0.074
		c-0.145,0.05-0.277,0.133-0.397,0.248c-0.121,0.115-0.221,0.267-0.3,0.455s-0.118,0.423-0.118,0.703s0.039,0.515,0.118,0.703
		S23.514,12.096,23.635,12.211z M24.016,10.788c0.005-0.098,0.022-0.19,0.052-0.276s0.073-0.158,0.133-0.216
		c0.06-0.059,0.144-0.088,0.252-0.088c0.103,0,0.184,0.03,0.243,0.09s0.104,0.133,0.131,0.221c0.027,0.087,0.045,0.179,0.052,0.276
		c0.007,0.097,0.011,0.183,0.011,0.258c0,0.077-0.004,0.165-0.011,0.262c-0.007,0.098-0.024,0.188-0.054,0.274
		s-0.073,0.159-0.133,0.219s-0.143,0.089-0.248,0.089s-0.187-0.029-0.245-0.089s-0.102-0.133-0.131-0.219s-0.047-0.178-0.052-0.276
		c-0.006-0.099-0.009-0.185-0.009-0.26C24.007,10.975,24.01,10.887,24.016,10.788z"/>
	<path d="M25.495,15.613c-0.225-0.212-0.469-0.363-0.734-0.455s-0.521-0.138-0.765-0.138c-0.24,0-0.492,0.046-0.758,0.138
		c-0.265,0.092-0.509,0.243-0.73,0.455s-0.405,0.491-0.551,0.838s-0.218,0.777-0.218,1.293c0,0.515,0.072,0.946,0.218,1.293
		s0.329,0.626,0.551,0.838c0.222,0.211,0.467,0.363,0.734,0.455s0.521,0.138,0.762,0.138c0.239,0,0.493-0.046,0.761-0.138
		s0.513-0.244,0.734-0.455c0.222-0.212,0.405-0.491,0.551-0.838s0.218-0.778,0.218-1.293c0-0.516-0.072-0.946-0.218-1.293
		S25.72,15.825,25.495,15.613z M24.795,18.226c-0.013,0.179-0.046,0.348-0.099,0.505c-0.054,0.158-0.136,0.292-0.245,0.402
		c-0.11,0.109-0.262,0.164-0.455,0.164c-0.194,0-0.345-0.055-0.451-0.164c-0.107-0.11-0.188-0.244-0.241-0.402
		c-0.054-0.157-0.086-0.327-0.096-0.509c-0.011-0.181-0.016-0.34-0.016-0.478c0-0.143,0.005-0.305,0.016-0.486
		c0.01-0.181,0.042-0.351,0.096-0.509c0.054-0.157,0.135-0.29,0.244-0.397c0.11-0.107,0.265-0.161,0.463-0.161
		c0.189,0,0.338,0.056,0.448,0.165c0.109,0.109,0.189,0.245,0.24,0.405c0.052,0.161,0.083,0.33,0.096,0.509s0.02,0.337,0.02,0.475
		C24.814,17.887,24.808,18.048,24.795,18.226z"/>
	<path d="M14.093,13.458c0.189-0.18,0.347-0.418,0.471-0.714s0.186-0.664,0.186-1.104s-0.062-0.808-0.186-1.104
		s-0.282-0.534-0.474-0.715s-0.4-0.31-0.627-0.388c-0.226-0.079-0.443-0.118-0.652-0.118c-0.205,0-0.42,0.039-0.646,0.118
		c-0.227,0.078-0.434,0.207-0.623,0.388s-0.346,0.419-0.47,0.715s-0.187,0.664-0.187,1.104s0.063,0.808,0.187,1.104
		s0.28,0.534,0.47,0.714c0.189,0.181,0.398,0.311,0.626,0.389c0.229,0.078,0.445,0.117,0.65,0.117c0.204,0,0.421-0.039,0.649-0.117
		S13.903,13.639,14.093,13.458z M13.199,12.825c-0.094,0.094-0.224,0.141-0.389,0.141c-0.166,0-0.294-0.047-0.386-0.141
		c-0.091-0.094-0.159-0.208-0.205-0.343s-0.073-0.279-0.082-0.434s-0.013-0.291-0.013-0.408c0-0.122,0.004-0.26,0.013-0.415
		c0.009-0.154,0.036-0.299,0.082-0.434s0.115-0.248,0.209-0.34c0.094-0.091,0.225-0.137,0.395-0.137
		c0.161,0,0.288,0.047,0.382,0.141s0.162,0.209,0.206,0.346c0.043,0.137,0.07,0.282,0.081,0.434
		c0.011,0.152,0.017,0.288,0.017,0.405c0,0.122-0.006,0.259-0.017,0.411s-0.039,0.296-0.085,0.431
		C13.362,12.617,13.292,12.731,13.199,12.825z"/>
	<path d="M36.154,7.347c0.229-0.078,0.437-0.208,0.626-0.389c0.189-0.18,0.347-0.418,0.471-0.714s0.186-0.664,0.186-1.104
		s-0.062-0.808-0.186-1.104s-0.282-0.534-0.474-0.715s-0.4-0.31-0.627-0.388c-0.226-0.079-0.443-0.118-0.652-0.118
		c-0.205,0-0.42,0.039-0.646,0.118c-0.227,0.078-0.434,0.207-0.623,0.388s-0.346,0.419-0.47,0.715s-0.187,0.664-0.187,1.104
		s0.063,0.808,0.187,1.104s0.28,0.534,0.47,0.714c0.189,0.181,0.398,0.311,0.626,0.389c0.229,0.078,0.445,0.117,0.65,0.117
		C35.709,7.464,35.926,7.425,36.154,7.347z M35.112,6.325c-0.091-0.094-0.159-0.208-0.205-0.343s-0.073-0.279-0.082-0.434
		s-0.013-0.291-0.013-0.408c0-0.122,0.004-0.26,0.013-0.415c0.009-0.154,0.036-0.299,0.082-0.434s0.115-0.248,0.209-0.34
		c0.094-0.091,0.225-0.137,0.395-0.137c0.161,0,0.288,0.047,0.382,0.141s0.162,0.209,0.206,0.346
		c0.043,0.137,0.07,0.282,0.081,0.434c0.011,0.152,0.017,0.288,0.017,0.405c0,0.122-0.006,0.259-0.017,0.411
		s-0.039,0.296-0.085,0.431c-0.045,0.135-0.115,0.249-0.208,0.343c-0.094,0.094-0.224,0.141-0.389,0.141
		C35.332,6.466,35.204,6.419,35.112,6.325z"/>
	<path d="M31.114,11.552c0.204,0,0.421-0.039,0.649-0.117s0.437-0.208,0.626-0.389c0.189-0.18,0.347-0.418,0.471-0.714
		s0.186-0.664,0.186-1.104s-0.062-0.808-0.186-1.104s-0.282-0.534-0.474-0.715s-0.4-0.31-0.627-0.388
		c-0.226-0.079-0.443-0.118-0.652-0.118c-0.205,0-0.42,0.039-0.646,0.118c-0.227,0.078-0.434,0.207-0.623,0.388
		s-0.346,0.419-0.47,0.715s-0.187,0.664-0.187,1.104s0.063,0.808,0.187,1.104s0.28,0.534,0.47,0.714
		c0.189,0.181,0.398,0.311,0.626,0.389C30.692,11.513,30.909,11.552,31.114,11.552z M30.422,9.229c0-0.122,0.004-0.26,0.013-0.415
		c0.009-0.154,0.036-0.299,0.082-0.434s0.115-0.248,0.209-0.34c0.094-0.091,0.225-0.137,0.395-0.137
		c0.161,0,0.288,0.047,0.382,0.141s0.162,0.209,0.206,0.346c0.043,0.137,0.07,0.282,0.081,0.434
		c0.011,0.152,0.017,0.288,0.017,0.405c0,0.122-0.006,0.259-0.017,0.411s-0.039,0.296-0.085,0.431
		c-0.045,0.135-0.115,0.249-0.208,0.343c-0.094,0.094-0.224,0.141-0.389,0.141c-0.166,0-0.294-0.047-0.386-0.141
		c-0.091-0.094-0.159-0.208-0.205-0.343s-0.073-0.279-0.082-0.434S30.422,9.346,30.422,9.229z"/>
	<path d="M32.251,12.924c-0.148,0.236-0.338,0.425-0.57,0.564c-0.231,0.14-0.491,0.24-0.779,0.3
		c-0.288,0.061-0.584,0.086-0.889,0.078v1.729h1.956v4.812h2.496v-8.352h-1.968C32.481,12.398,32.399,12.688,32.251,12.924z"/>
	<path d="M11.862,8.206h1.483V3.24h-1.17c-0.01,0.204-0.059,0.377-0.146,0.517c-0.088,0.141-0.201,0.253-0.339,0.336
		s-0.292,0.143-0.464,0.178c-0.171,0.036-0.347,0.052-0.527,0.047v1.027h1.163V8.206z"/>
	<path d="M27.153,10.068h1.329V5.62h-1.048c-0.009,0.184-0.053,0.338-0.131,0.463C27.225,6.209,27.123,6.31,27,6.384
		c-0.124,0.074-0.262,0.128-0.416,0.16c-0.153,0.031-0.311,0.046-0.473,0.041v0.921h1.042V10.068z"/>
	<path d="M18.511,18.313c-0.041,0.066-0.095,0.119-0.159,0.158c-0.065,0.039-0.138,0.066-0.219,0.084
		c-0.08,0.016-0.163,0.023-0.248,0.021v0.482h0.547v1.348h0.699v-2.338H18.58C18.575,18.164,18.553,18.246,18.511,18.313z"/>
	<path d="M4.744,15.029h0.699v-2.338H4.893c-0.005,0.096-0.027,0.178-0.069,0.244c-0.041,0.066-0.095,0.119-0.159,0.158
		c-0.065,0.039-0.138,0.066-0.219,0.084c-0.08,0.016-0.163,0.023-0.248,0.021v0.482h0.547V15.029z"/>
	<path d="M15.823,11.818c-0.041,0.066-0.095,0.119-0.159,0.158c-0.065,0.039-0.138,0.066-0.219,0.084
		c-0.08,0.016-0.163,0.023-0.248,0.021v0.482h0.547v1.348h0.699v-2.338h-0.551C15.888,11.67,15.865,11.752,15.823,11.818z"/>
	<path d="M24.682,5.531h0.699V3.193H24.83c-0.005,0.096-0.027,0.178-0.069,0.244c-0.041,0.066-0.095,0.119-0.159,0.158
		c-0.065,0.039-0.138,0.066-0.219,0.084c-0.08,0.016-0.163,0.023-0.248,0.021v0.482h0.547V5.531z"/>
	<path d="M31.366,5.803h0.734V3.346h-0.579c-0.004,0.102-0.028,0.187-0.072,0.256c-0.043,0.07-0.099,0.125-0.167,0.166
		c-0.068,0.042-0.146,0.071-0.229,0.089c-0.085,0.018-0.172,0.025-0.262,0.022v0.509h0.575V5.803z"/>
	<path d="M36.136,17.438c-0.041,0.066-0.095,0.119-0.159,0.158c-0.065,0.039-0.138,0.066-0.219,0.084
		c-0.08,0.016-0.163,0.023-0.248,0.021v0.482h0.547v1.348h0.699v-2.338h-0.551C36.2,17.289,36.178,17.371,36.136,17.438z"/>
	<path d="M4.494,6.781h0.699V4.443H4.643C4.638,4.539,4.615,4.621,4.573,4.688C4.532,4.754,4.479,4.807,4.414,4.846
		C4.349,4.885,4.276,4.912,4.195,4.93c-0.08,0.016-0.163,0.023-0.248,0.021v0.482h0.547V6.781z"/>
	<path d="M14.241,16.771c-0.079,0.126-0.181,0.227-0.304,0.301c-0.124,0.074-0.262,0.128-0.416,0.16
		c-0.153,0.031-0.311,0.046-0.473,0.041v0.921h1.042v2.563h1.329v-4.448h-1.048C14.363,16.491,14.319,16.646,14.241,16.771z"/>
	<path d="M20.054,12.425c-0.079,0.126-0.181,0.227-0.304,0.301c-0.124,0.074-0.262,0.128-0.416,0.16
		c-0.153,0.031-0.311,0.046-0.473,0.041v0.921h1.042v2.563h1.329v-4.448h-1.048C20.176,12.146,20.132,12.3,20.054,12.425z"/>
</g>
<g>
</g>
<g>
</g>
<g>
</g>
<g>
</g>
<g>
</g>
<g>
</g>
<g>
</g>
<g>
</g>
<g>
</g>
<g>
</g>
<g>
</g>
<g>
</g>
<g>
</g>
<g>
</g>
<g>
</g>
</svg>
