<?xml version="1.0" encoding="iso-8859-1"?>
<!-- Generator: Adobe Illustrator 16.0.0, SVG Export Plug-In . SVG Version: 6.00 Build 0)  -->
<!DOCTYPE svg PUBLIC "-//W3C//DTD SVG 1.1//EN" "http://www.w3.org/Graphics/SVG/1.1/DTD/svg11.dtd">
<svg version="1.1" id="Layer_1" xmlns="http://www.w3.org/2000/svg" xmlns:xlink="http://www.w3.org/1999/xlink" x="0px" y="0px"
	 width="40.163px" height="39.552px" viewBox="0 0 40.163 39.552" style="enable-background:new 0 0 40.163 39.552;"
	 xml:space="preserve">
<g>
	<path d="M9.576,10.11l24.079-0.001V7.851L9.576,7.853c-2.835,0-3.889-0.756-3.889-2.791c0-2.615,1.038-2.804,2.747-2.804
		c0.183,0,0.363,0.003,0.542,0.006C9.159,2.267,9.339,2.27,9.513,2.27h24.143V0.012H9.513c-0.162,0-0.329-0.003-0.5-0.006
		C8.823,0.003,8.63,0,8.435,0C7.066,0,3.43,0,3.43,5.062C3.43,8.412,5.498,10.11,9.576,10.11z"/>
	<rect x="8.162" y="3.065" width="24.082" height="0.75"/>
	<rect x="8.162" y="4.633" width="24.082" height="0.75"/>
	<rect x="8.162" y="6.295" width="24.082" height="0.75"/>
	<path d="M40.163,26.133H8.083c-0.215,0-0.438-0.004-0.664-0.007c-0.252-0.004-0.509-0.008-0.769-0.008c-1.818,0-6.65,0-6.65,6.726
		c0,4.452,2.748,6.708,8.167,6.708l31.996-0.002v-3L8.167,36.552C4.4,36.552,3,35.547,3,32.843c0-3.476,1.379-3.726,3.65-3.726
		c0.243,0,0.483,0.004,0.72,0.008c0.243,0.004,0.481,0.008,0.713,0.008h32.08V26.133z"/>
	<rect x="6.288" y="30.313" width="32" height="0.75"/>
	<rect x="6.288" y="32.397" width="32" height="0.75"/>
	<rect x="6.288" y="34.605" width="32" height="0.75"/>
	<path d="M32.767,24.114c0.227,0.004,0.456,0.008,0.689,0.008c1.629,0,5.958,0,5.958-6.026c0-3.989-2.462-6.011-7.317-6.011
		L3.43,12.087v2.688l28.667-0.002c3.374,0,4.63,0.9,4.63,3.323c0,3.114-1.236,3.338-3.271,3.338c-0.218,0-0.434-0.003-0.646-0.007
		c-0.218-0.003-0.432-0.007-0.639-0.007H3.43v2.688h28.742C32.364,24.108,32.563,24.111,32.767,24.114z"/>
	<rect x="5.109" y="19.651" width="28.671" height="0.75"/>
	<rect x="5.109" y="17.784" width="28.671" height="0.75"/>
	<rect x="5.109" y="15.806" width="28.671" height="0.75"/>
</g>
<g>
</g>
<g>
</g>
<g>
</g>
<g>
</g>
<g>
</g>
<g>
</g>
<g>
</g>
<g>
</g>
<g>
</g>
<g>
</g>
<g>
</g>
<g>
</g>
<g>
</g>
<g>
</g>
<g>
</g>
</svg>
