<?xml version="1.0" encoding="iso-8859-1"?>
<!-- Generator: Adobe Illustrator 16.0.0, SVG Export Plug-In . SVG Version: 6.00 Build 0)  -->
<!DOCTYPE svg PUBLIC "-//W3C//DTD SVG 1.1//EN" "http://www.w3.org/Graphics/SVG/1.1/DTD/svg11.dtd">
<svg version="1.1" id="Layer_1" xmlns="http://www.w3.org/2000/svg" xmlns:xlink="http://www.w3.org/1999/xlink" x="0px" y="0px"
	 width="44.228px" height="37.599px" viewBox="0 0 44.228 37.599" style="enable-background:new 0 0 44.228 37.599;"
	 xml:space="preserve">
<g>
	<path d="M26.563,32.614L1.334,11.556c0,0-1.334,0.485-1.334,2.282s0.559,2.167,0.559,2.167l26.003,21.594
		c0,0-0.746-1.531-0.746-2.656S26.563,32.614,26.563,32.614z"/>
	<path d="M27.071,36.093c0,0-0.392,0.219-0.392,0.719s0.468,0.59,0.678,0.548s16.808-11.026,16.808-11.026l0.063-1.611
		L27.071,36.093z"/>
	<path d="M26.551,35.192c0.226,0.266,0.418,0.281,0.604,0.194s16.024-10.911,16.024-10.911l0.01-0.85L26.812,34.645
		C26.812,34.645,26.325,34.927,26.551,35.192z"/>
	<path d="M27.046,33.833l16.137-10.896l-0.014-0.825l-16.31,11.033c0,0-0.422,0.281-0.219,0.563S27.046,33.833,27.046,33.833z"/>
	<path d="M43.993,20.302L20.526,0L2.187,10.736L27,32.161L43.993,20.302z M10.542,13.051L22.768,5.79l4.634,3.959l-12.08,7.572
		L10.542,13.051z M19.807,16.519l-0.5-0.463l5.41-3.54l0.395,0.499L19.807,16.519z"/>
</g>
<g>
</g>
<g>
</g>
<g>
</g>
<g>
</g>
<g>
</g>
<g>
</g>
<g>
</g>
<g>
</g>
<g>
</g>
<g>
</g>
<g>
</g>
<g>
</g>
<g>
</g>
<g>
</g>
<g>
</g>
</svg>
