<?xml version="1.0" encoding="iso-8859-1"?>
<!-- Generator: Adobe Illustrator 16.0.0, SVG Export Plug-In . SVG Version: 6.00 Build 0)  -->
<!DOCTYPE svg PUBLIC "-//W3C//DTD SVG 1.1//EN" "http://www.w3.org/Graphics/SVG/1.1/DTD/svg11.dtd">
<svg version="1.1" id="Layer_1" xmlns="http://www.w3.org/2000/svg" xmlns:xlink="http://www.w3.org/1999/xlink" x="0px" y="0px"
	 width="41.084px" height="33.916px" viewBox="0 0 41.084 33.916" style="enable-background:new 0 0 41.084 33.916;"
	 xml:space="preserve">
<g>
	<path d="M9.119,7.637L5.737,5.604l4.982-0.067V1.118L3.433,3.949L1.947,6.51l4.918,2.151c0,0-5.943,0-6.25,0
		C0.307,8.661,0,13.784,0,13.784h5.942L9.119,7.637z"/>
	<polygon points="4.488,15.064 0.134,15.064 6.538,20.37 10.124,18.936 	"/>
	<polygon points="33.502,19.418 35.859,20.546 32.478,20.136 33.708,16.96 41.084,16.448 38.01,11.223 32.272,15.423 26.843,13.784 
		21.413,16.96 15.266,16.755 14.958,19.521 19.056,21.11 18.647,22.698 15.471,21.673 10.348,19.521 8.299,20.648 8.299,24.132 
		11.475,26.283 21.311,26.283 23.155,22.185 21.054,19.56 26.945,19.829 24.32,22.326 27.355,22.441 31.249,20.956 34.001,23.325 
		40.086,23.289 40.605,17.561 34.015,17.779 	"/>
	<path d="M18.329,28.127l5.547,5.789l3.074-1.434l-4.728-5.277C22.222,27.205,19.046,28.127,18.329,28.127z"/>
	<polygon points="23.001,26.245 26.074,29.011 33.002,27.461 33.002,23.479 24.089,23.479 	"/>
	<polygon points="25.332,7.452 25.102,12.042 26.845,12.692 29.509,8.696 29.814,1.08 24.691,0.253 20.849,6.049 	"/>
	<polygon points="29.814,10.505 29.814,13.271 32.683,13.271 37.805,8.968 32.683,3.539 31.249,4.897 31.453,8.405 	"/>
	<polygon points="10.873,8.405 9.938,10.198 11.295,11.223 10.86,12.759 8.299,11.889 6.506,15.064 10.719,18.087 13.831,16.864 
		14.994,13.271 16.188,13.784 16.188,14.911 22.54,14.501 23.564,11.633 23.564,8.459 18.647,6.919 20.286,4.59 22.284,1.438 
		19.171,0.055 12.564,0 12.486,6.33 17.776,9.481 16.188,10.198 	"/>
</g>
<g>
</g>
<g>
</g>
<g>
</g>
<g>
</g>
<g>
</g>
<g>
</g>
<g>
</g>
<g>
</g>
<g>
</g>
<g>
</g>
<g>
</g>
<g>
</g>
<g>
</g>
<g>
</g>
<g>
</g>
</svg>
