<?xml version="1.0" encoding="iso-8859-1"?>
<!-- Generator: Adobe Illustrator 16.0.0, SVG Export Plug-In . SVG Version: 6.00 Build 0)  -->
<!DOCTYPE svg PUBLIC "-//W3C//DTD SVG 1.1//EN" "http://www.w3.org/Graphics/SVG/1.1/DTD/svg11.dtd">
<svg version="1.1" id="Layer_1" xmlns="http://www.w3.org/2000/svg" xmlns:xlink="http://www.w3.org/1999/xlink" x="0px" y="0px"
	 width="46.654px" height="35.209px" viewBox="0 0 46.654 35.209" style="enable-background:new 0 0 46.654 35.209;"
	 xml:space="preserve">
<g>
	<path d="M10.665,18.635h-7.91v-3.494h7.91v-3.854h-7.91V7.796h7.91V5.359h6.536V2.062h-3.718V0h-8.36v2.062H0v33.147h17.201v-4.517
		h-6.536V18.635z M4.283,24.646c-0.844,0-1.528-0.685-1.528-1.529c0-0.844,0.685-1.528,1.528-1.528s1.528,0.685,1.528,1.528
		C5.812,23.962,5.127,24.646,4.283,24.646z M9.563,24.966L8.6,24.9v-3.697l0.964,0.068V24.966z"/>
	<path d="M18.207,22.966c0.749,0,1.497,0,2.247,0c0.294,0,0.492-0.193,0.592-0.451c0.35-0.899,0.699-1.798,1.049-2.697
		c0.446,0.917,0.892,1.833,1.337,2.749c0.239,0.487,0.996,0.342,1.124-0.147c0.647-2.488,1.295-4.976,1.944-7.464
		c0.552,2.52,1.103,5.04,1.654,7.56c0.143,0.647,0.985,0.521,1.185,0c0.61-1.594,1.22-3.188,1.83-4.782
		c0.506,1.575,1.013,3.149,1.521,4.723c0.154,0.485,0.858,0.637,1.122,0.147c0.341-0.633,0.683-1.266,1.021-1.899
		c0.228,0.604,0.453,1.207,0.679,1.81c0.098,0.259,0.3,0.451,0.593,0.451c1.921,0,3.842,0,5.763,0c0.794,0,0.794-1.229,0-1.229
		c-1.66,0-3.322,0-4.984,0c-0.216,0-0.344,0.031-0.419,0.068c0.006-0.11-0.022-0.298-0.137-0.605
		c-0.269-0.712-0.534-1.425-0.803-2.137c-0.173-0.466-0.85-0.653-1.122-0.147c-0.327,0.606-0.653,1.212-0.978,1.818
		c-0.537-1.669-1.076-3.339-1.613-5.008c-0.196-0.609-0.971-0.561-1.185,0c-0.573,1.498-1.146,2.995-1.719,4.493
		c-0.589-2.687-1.177-5.374-1.765-8.061c-0.133-0.603-1.037-0.574-1.186,0c-0.725,2.779-1.447,5.558-2.171,8.337
		c-0.409-0.837-0.815-1.676-1.225-2.514c-0.256-0.528-0.948-0.298-1.123,0.147c-0.412,1.061-0.824,2.123-1.237,3.184
		c-0.08,0.208-0.141,0.337-0.185,0.425c-0.604,0-1.207,0-1.811,0C17.415,21.737,17.415,22.966,18.207,22.966z"/>
	<path d="M12.016,6.61v22.84h12.422v4.703h9.371v-4.703h12.846V6.61H12.016z M43.144,25.94H15.526v-15.82h27.617V25.94z"/>
	<rect x="19.39" y="34.243" width="19.465" height="0.966"/>
</g>
<g>
</g>
<g>
</g>
<g>
</g>
<g>
</g>
<g>
</g>
<g>
</g>
<g>
</g>
<g>
</g>
<g>
</g>
<g>
</g>
<g>
</g>
<g>
</g>
<g>
</g>
<g>
</g>
<g>
</g>
</svg>
