<?xml version="1.0" encoding="iso-8859-1"?>
<!-- Generator: Adobe Illustrator 16.0.0, SVG Export Plug-In . SVG Version: 6.00 Build 0)  -->
<!DOCTYPE svg PUBLIC "-//W3C//DTD SVG 1.1//EN" "http://www.w3.org/Graphics/SVG/1.1/DTD/svg11.dtd">
<svg version="1.1" id="Layer_1" xmlns="http://www.w3.org/2000/svg" xmlns:xlink="http://www.w3.org/1999/xlink" x="0px" y="0px"
	 width="40.745px" height="43.044px" viewBox="0 0 40.745 43.044" style="enable-background:new 0 0 40.745 43.044;"
	 xml:space="preserve">
<path d="M40.745,21.702v-0.83h-1.471h-1.471h-1.471v0.826h-3.781V7.985h-4.311V4.701c0.953-0.228,1.664-1.08,1.664-2.103
	c0-1.196-0.97-2.167-2.167-2.167s-2.167,0.971-2.167,2.167c0,1.022,0.711,1.875,1.664,2.103v3.284h-12.94V4.247
	c0.916-0.253,1.593-1.084,1.593-2.08c0-1.196-0.97-2.167-2.167-2.167s-2.167,0.971-2.167,2.167c0,1.048,0.745,1.923,1.734,2.123
	v3.695H8.412v13.713h-4v-0.962H2.941H1.471H0v0.83h1.471v0.522H0v0.83h1.471v0.416H0v0.83h1.471v0.378H0v0.83h2.941V25.37h1.471
	v-0.691h4v10.175h5.309v3.557H8.412v4.634H19.03V38.41h-1.43v-3.557h5.496v3.557h-1.43v4.634h10.618V38.41h-5.309v-3.557h5.575
	V24.679h3.781v0.827h1.471v0.003h2.941v-0.83h-1.471v-0.378h1.471v-0.83h-1.471v-0.416h1.471v-0.83h-1.471v-0.522H40.745z
	 M27.738,20.59H13.441v-7.68h14.297V20.59z"/>
<g>
</g>
<g>
</g>
<g>
</g>
<g>
</g>
<g>
</g>
<g>
</g>
<g>
</g>
<g>
</g>
<g>
</g>
<g>
</g>
<g>
</g>
<g>
</g>
<g>
</g>
<g>
</g>
<g>
</g>
</svg>
