<?xml version="1.0" encoding="iso-8859-1"?>
<!-- Generator: Adobe Illustrator 16.0.0, SVG Export Plug-In . SVG Version: 6.00 Build 0)  -->
<!DOCTYPE svg PUBLIC "-//W3C//DTD SVG 1.1//EN" "http://www.w3.org/Graphics/SVG/1.1/DTD/svg11.dtd">
<svg version="1.1" id="Layer_1" xmlns="http://www.w3.org/2000/svg" xmlns:xlink="http://www.w3.org/1999/xlink" x="0px" y="0px"
	 width="48.661px" height="37.129px" viewBox="0 0 48.661 37.129" style="enable-background:new 0 0 48.661 37.129;"
	 xml:space="preserve">
<g>
	<path d="M11.537,32.407c3.16,2.896,7.745,4.722,12.853,4.722c5.038,0,9.556-1.783,12.709-4.611
		c-3.836,0.994-8.088,1.553-12.566,1.553C19.888,34.071,15.483,33.473,11.537,32.407z"/>
	<path d="M39.061,15.511c-2.744-3.64-7.428-6.184-12.871-6.649l-0.05-2.597c1.318-0.432,2.264-1.672,2.236-3.132
		c-0.026-1.338-0.86-2.472-2.029-2.945c-1.199-0.375-2.019-0.084-2.324-0.027c-1.265,0.462-2.162,1.675-2.135,3.098
		c0.028,1.461,1.022,2.663,2.357,3.044l0.047,2.426c-0.001,0-0.001,0.035-0.002,0.052c-6.273,0.029-11.74,2.813-14.732,6.949
		c-1.908,0.588-3.605,1.301-4.994,2.132C1.856,19.056,0,20.742,0,23.13c0,2.033,1.348,3.556,3.417,4.702
		c1.658,1.252,3.972,2.277,6.672,3.062c0.027,0.032,6.949,2.178,14.443,2.178c5.045,0,9.797-0.709,13.956-1.957
		c0.003-0.003,0.006-0.006,0.009-0.01c0.097-0.026,0.19-0.055,0.286-0.081c2.311-0.712,4.43-1.592,6.311-2.61
		c2.22-1.406,3.565-3.139,3.565-5.184C48.661,19.702,44.655,17.1,39.061,15.511z M7.028,22.071c-1.237,0-2.239-0.7-2.239-1.563
		c0-0.864,1.002-1.564,2.239-1.564c1.236,0,2.239,0.7,2.239,1.564C9.267,21.371,8.265,22.071,7.028,22.071z M13.591,27.042
		c-1.616,0-2.926-0.916-2.926-2.044c0-1.129,1.31-2.045,2.926-2.045s2.926,0.916,2.926,2.045
		C16.517,26.127,15.207,27.042,13.591,27.042z M24.33,28.924c-1.795,0-3.25-1.017-3.25-2.271c0-1.254,1.455-2.271,3.25-2.271
		s3.25,1.017,3.25,2.271C27.58,27.908,26.125,28.924,24.33,28.924z M36.236,27.042c-1.616,0-2.926-0.916-2.926-2.044
		c0-1.129,1.31-2.044,2.926-2.044s2.926,0.915,2.926,2.044C39.162,26.127,37.852,27.042,36.236,27.042z M42.917,22.333
		c-1.236,0-2.239-0.7-2.239-1.563c0-0.864,1.002-1.564,2.239-1.564c1.237,0,2.239,0.7,2.239,1.564
		C45.155,21.633,44.153,22.333,42.917,22.333z"/>
</g>
<g>
</g>
<g>
</g>
<g>
</g>
<g>
</g>
<g>
</g>
<g>
</g>
<g>
</g>
<g>
</g>
<g>
</g>
<g>
</g>
<g>
</g>
<g>
</g>
<g>
</g>
<g>
</g>
<g>
</g>
</svg>
