<?xml version="1.0" encoding="iso-8859-1"?>
<!-- Generator: Adobe Illustrator 16.0.0, SVG Export Plug-In . SVG Version: 6.00 Build 0)  -->
<!DOCTYPE svg PUBLIC "-//W3C//DTD SVG 1.1//EN" "http://www.w3.org/Graphics/SVG/1.1/DTD/svg11.dtd">
<svg version="1.1" id="Layer_1" xmlns="http://www.w3.org/2000/svg" xmlns:xlink="http://www.w3.org/1999/xlink" x="0px" y="0px"
	 width="36.228px" height="48.047px" viewBox="0 0 36.228 48.047" style="enable-background:new 0 0 36.228 48.047;"
	 xml:space="preserve">
<g>
	<path d="M14.247,20.719c5.811,0,5.283,0,11.094,0c1.46,0,1.46-2.264,0-2.264c-5.811,0-5.283,0-11.094,0
		C12.789,18.455,12.789,20.719,14.247,20.719z"/>
	<path d="M14.247,27.492c5.811,0,5.283,0,11.094,0c1.46,0,1.46-2.264,0-2.264c-5.811,0-5.283,0-11.094,0
		C12.789,25.229,12.789,27.492,14.247,27.492z"/>
	<path d="M14.247,13.551c5.811,0,5.283,0,11.094,0c1.46,0,1.46-2.264,0-2.264c-5.811,0-5.283,0-11.094,0
		C12.789,11.287,12.789,13.551,14.247,13.551z"/>
	<path d="M10.107,10.719H6.953c-0.114,0-0.207,0.069-0.207,0.156v3.18c0,0.084,0.093,0.154,0.207,0.154h3.154
		c0.114,0,0.206-0.07,0.206-0.154v-3.18C10.313,10.788,10.222,10.719,10.107,10.719z"/>
	<path d="M9.914,17.781H6.76c-0.113,0-0.206,0.068-0.206,0.156v3.179c0,0.085,0.093,0.155,0.206,0.155h3.154
		c0.114,0,0.208-0.07,0.208-0.155v-3.179C10.122,17.85,10.028,17.781,9.914,17.781z"/>
	<path d="M9.914,24.65H6.76c-0.113,0-0.206,0.071-0.206,0.156v3.181c0,0.085,0.093,0.153,0.206,0.153h3.154
		c0.114,0,0.208-0.068,0.208-0.153v-3.181C10.122,24.722,10.028,24.65,9.914,24.65z"/>
	<path d="M9.914,31.783H6.76c-0.113,0-0.206,0.069-0.206,0.156v3.179c0,0.085,0.093,0.155,0.206,0.155h3.154
		c0.114,0,0.208-0.07,0.208-0.155v-3.179C10.122,31.853,10.028,31.783,9.914,31.783z"/>
	<polygon points="33.075,34.469 30.814,32.889 25.776,40.101 23.201,37.498 21.24,39.438 26.143,44.393 	"/>
	<path d="M31.668,29.153V1.992h-4.909V0H5.461v1.992H0v40.982h17.371v5.072h18.856V29.153H31.668z M3,39.975V4.992h2.461v1.992
		h21.298V4.992h1.909v24.161H17.371v3.243c-0.813,0-1.802,0-3.124,0c-1.458,0-1.458,2.264,0,2.264c1.322,0,2.311,0,3.124,0v5.314H3z
		 M34.228,46.047H19.371V31.153h14.856V46.047z"/>
</g>
<g>
</g>
<g>
</g>
<g>
</g>
<g>
</g>
<g>
</g>
<g>
</g>
<g>
</g>
<g>
</g>
<g>
</g>
<g>
</g>
<g>
</g>
<g>
</g>
<g>
</g>
<g>
</g>
<g>
</g>
</svg>
